# xmcd
#
# Track frame offsets: 
#        150
#        18168
#        32785
#        56079
#        78470
#        102961
#        122746
#        142320
#        184279
#        198714
#
# Disc length: 2858 seconds
#
# Revision: 0
# Processed by: cddbd v1.5.2PL0 Copyright (c) Steve Scherf et al.
# Submitted via: ExactAudioCopy v1.3
#
DISCID=920b280a
DTITLE=King Of The World - Connected
DYEAR=2019
DGENRE=Blues Rock
TTITLE0=Love Don't Come from You
TTITLE1=Connected
TTITLE2=Give Me Back My Heart
TTITLE3=Future Man
TTITLE4=Saving Grace
TTITLE5=Eyes Wide Open
TTITLE6=Money
TTITLE7=Life After You
TTITLE8=I Can't Help Myself
TTITLE9=Space Captain
EXTD=
EXTT0=
EXTT1=
EXTT2=
EXTT3=
EXTT4=
EXTT5=
EXTT6=
EXTT7=
EXTT8=
EXTT9=
PLAYORDER=
